<?xml version="1.0" standalone="no"?>
<!DOCTYPE svg PUBLIC "-//W3C//DTD SVG 20010904//EN"
 "http://www.w3.org/TR/2001/REC-SVG-20010904/DTD/svg10.dtd">
<svg version="1.0" xmlns="http://www.w3.org/2000/svg"
 width="1440.000000pt" height="921.000000pt" viewBox="0 0 1440.000000 921.000000"
 preserveAspectRatio="xMidYMid meet">

<g transform="translate(0.000000,921.000000) scale(0.100000,-0.100000)"
fill="#000000" stroke="none">
<path d="M2020 4863 l1 -2518 37 75 c50 101 179 232 273 278 237 114 510 71
693 -111 114 -113 165 -224 191 -409 6 -47 -32 -207 -68 -282 -67 -141 -193
-256 -337 -308 l-65 -23 464 -3 c275 -1 467 2 470 7 4 5 26 7 51 5 25 -3 290
-7 590 -10 l545 -5 -79 35 c-103 46 -140 71 -215 147 -113 115 -179 291 -168
448 9 140 75 291 170 389 23 23 38 42 35 42 -4 0 -33 -7 -65 -15 -116 -30
-324 -8 -425 46 -23 12 -39 16 -43 9 -3 -5 -12 -10 -18 -10 -8 0 -7 4 2 9 12
8 13 12 1 26 -7 9 -19 14 -27 11 -8 -3 -11 -1 -8 4 4 6 -20 39 -52 73 -107
115 -166 262 -166 417 -1 103 15 173 58 265 105 222 330 357 570 342 246 -15
445 -165 535 -403 28 -74 38 -235 21 -326 -17 -88 -80 -212 -143 -282 -51 -57
-51 -59 -23 -51 116 31 231 33 336 6 194 -50 364 -210 420 -395 12 -39 24 -78
26 -86 3 -8 13 13 23 47 60 217 235 389 443 437 85 20 215 20 287 1 30 -8 58
-15 62 -15 4 0 -12 21 -36 46 -96 101 -166 274 -166 410 0 354 293 634 639
611 154 -10 287 -74 397 -189 161 -171 208 -418 122 -638 -27 -67 -80 -151
-129 -202 -20 -21 -33 -38 -30 -38 3 1 33 7 66 15 193 47 403 -10 551 -147 55
-51 66 -58 61 -38 -38 135 -35 284 6 400 61 173 200 310 373 371 76 26 222 36
306 20 103 -20 219 -82 297 -159 108 -107 160 -211 183 -366 9 -69 9 -96 -5
-169 -42 -232 -194 -407 -417 -483 -43 -15 -83 -19 -180 -19 -117 1 -130 3
-205 33 -83 33 -201 114 -229 157 -29 44 -34 27 -14 -42 16 -55 18 -88 14
-173 -5 -127 -29 -201 -95 -303 -78 -118 -155 -178 -331 -255 -18 -8 529 -11
2000 -11 1494 0 2018 3 2000 11 -180 81 -254 138 -332 257 -26 40 -57 103 -69
140 -29 92 -36 237 -15 321 51 204 205 375 398 441 86 30 239 37 330 15 174
-41 333 -169 408 -329 22 -47 40 -93 40 -103 0 -12 3 -15 8 -7 4 6 6 1150 4
2542 l-2 2531 -536 0 c-507 0 -536 -1 -529 -17 41 -108 49 -152 49 -258 0 -92
-5 -122 -27 -183 -86 -243 -288 -402 -532 -418 -285 -20 -554 179 -620 458
-28 118 -17 276 26 375 l18 43 -4099 0 -4100 0 0 -2517z m3160 947 c149 -49
281 -160 351 -295 53 -103 64 -153 64 -295 -1 -117 -3 -130 -33 -205 -96 -241
-309 -387 -562 -387 -259 1 -481 162 -566 412 -114 337 95 706 446 785 85 19
215 13 300 -15z m-1363 -3066 c-3 -3 -12 -4 -19 -1 -8 3 -5 6 6 6 11 1 17 -2
13 -5z m-90 -10 c-3 -3 -12 -4 -19 -1 -8 3 -5 6 6 6 11 1 17 -2 13 -5z m-262
-104 c-3 -5 -12 -10 -18 -10 -7 0 -6 4 3 10 19 12 23 12 15 0z m-15 -30 c8 -5
11 -10 5 -10 -5 0 -17 5 -25 10 -8 5 -10 10 -5 10 6 0 17 -5 25 -10z m-180
-285 c0 -5 -5 -3 -10 5 -8 12 -10 12 -10 1 0 -8 -2 -12 -5 -9 -3 3 -2 13 1 22
5 14 9 15 15 4 5 -7 9 -17 9 -23z m1107 -52 c-3 -10 -5 -4 -5 12 0 17 2 24 5
18 2 -7 2 -21 0 -30z m0 -225 c-3 -8 -6 -5 -6 6 -1 11 2 17 5 13 3 -3 4 -12 1
-19z m-1124 -33 c-3 -9 -8 -14 -10 -11 -3 3 -2 9 2 15 9 16 15 13 8 -4z m177
-255 c0 -5 -2 -10 -4 -10 -3 0 -8 5 -11 10 -3 6 -1 10 4 10 6 0 11 -4 11 -10z
m75 -90 c3 -6 -1 -7 -9 -4 -18 7 -21 14 -7 14 6 0 13 -4 16 -10z m419 -79 c4
-5 -3 -7 -14 -4 -23 6 -26 13 -6 13 8 0 17 -4 20 -9z"/>
<path d="M6668 2555 c66 -73 117 -167 135 -250 6 -30 14 -55 17 -55 3 0 11 24
18 53 19 82 78 192 139 257 30 33 53 60 50 60 -4 0 -32 -7 -64 -15 -31 -8 -96
-15 -143 -15 -47 0 -112 7 -143 15 -32 8 -60 15 -63 15 -3 0 21 -29 54 -65z"/>
<path d="M5607 2055 c-3 -11 -11 -40 -17 -65 -38 -147 -172 -307 -310 -372
-41 -20 -86 -40 -100 -46 -18 -8 104 -11 435 -11 253 1 453 3 445 6 -110 39
-229 112 -285 174 -74 82 -115 158 -145 269 -12 45 -19 58 -23 45z"/>
<path d="M6803 2008 c-23 -97 -81 -197 -163 -279 -73 -73 -106 -94 -250 -157
-19 -8 93 -11 430 -11 342 0 449 3 430 11 -145 65 -178 86 -250 158 -81 81
-139 180 -163 279 -6 28 -14 51 -17 51 -3 0 -11 -24 -17 -52z"/>
<path d="M12351 1968 c-25 -82 -75 -163 -152 -239 -72 -73 -105 -94 -249 -157
-19 -8 28 -11 198 -11 122 -1 222 2 222 7 2 107 0 435 -3 438 -2 2 -9 -15 -16
-38z"/>
<path d="M2020 1760 l0 -200 218 1 c165 0 211 3 192 11 -135 59 -179 87 -251
158 -56 55 -86 96 -114 153 -21 42 -40 77 -42 77 -1 0 -3 -90 -3 -200z"/>
</g>
</svg>
